<svg xmlns="http://www.w3.org/2000/svg" viewBox="0 0 358.12 264.47"><defs><style>.cls-1{fill:#009658;stroke:#000;stroke-miterlimit:10;stroke-width:4px;}.cls-2{fill:#e33110;}</style></defs><g id="Camada_2" data-name="Camada 2"><g id="Camada_1-2" data-name="Camada 1"><path class="cls-1" d="M179.12,51.47c-4-4.65-52-59-116-48C33.38,8.6-.3,27.94,2.12,40.47c2,10.09,28.15,20.13,145,16l32-4.66"/><path class="cls-1" d="M179,51.47c4-4.65,52-59,116-48,29.74,5.13,63.42,24.47,61,37-1.95,10.09-28.15,20.13-145,16l-32-4.66"/><path class="cls-2" d="M307.86,165c-38.38-21.42-82.82-32.73-128.74-32.73S88.76,143.58,50.38,165c-.17-2.19-.26-4.38-.26-6.53,0-57.34,57.87-104,129-104s129,46.66,129,104C308.12,160.62,308,162.81,307.86,165Z"/><path d="M179.12,56.47c70,0,127,45.76,127,102,0,1.08,0,2.16-.06,3.26-38-20.6-81.79-31.46-126.94-31.46S90.23,141.13,52.19,161.73c0-1.1-.07-2.18-.07-3.26,0-56.24,57-102,127-102m0-4c-72.35,0-131,47.46-131,106a85.77,85.77,0,0,0,.57,9.79c37.36-21.48,82.21-34,130.43-34s93.08,12.51,130.44,34a85.78,85.78,0,0,0,.56-9.79c0-58.54-58.65-106-131-106Z"/><path class="cls-2" d="M179.12,262.47c-32.45,0-63.47-9.76-87.33-27.48-23.21-17.23-37.72-40.5-41-65.65C89,147.7,133.29,136.27,179.12,136.27s90.17,11.43,128.3,33.07c-3.25,25.15-17.75,48.42-41,65.65C242.59,252.71,211.58,262.47,179.12,262.47Z"/><path d="M179.12,138.27c45,0,88.57,11.1,126.13,32.15-3.51,24.09-17.63,46.37-40,63-23.53,17.46-54.12,27.08-86.15,27.08S116.5,250.85,93,233.39c-22.36-16.6-36.48-38.88-40-63,37.56-21,81.1-32.15,126.12-32.15m0-4c-48.22,0-93.07,12.51-130.43,34,6.1,54,62.17,96.21,130.43,96.21s124.33-42.25,130.44-96.21c-37.36-21.48-82.21-34-130.44-34Z"/></g></g></svg>